<?xml version="1.0" encoding="UTF-8" standalone="no"?>
<!-- Created with Inkscape (http://www.inkscape.org/) -->

<svg
   xmlns:dc="http://purl.org/dc/elements/1.1/"
   xmlns:cc="http://creativecommons.org/ns#"
   xmlns:rdf="http://www.w3.org/1999/02/22-rdf-syntax-ns#"
   xmlns:svg="http://www.w3.org/2000/svg"
   xmlns="http://www.w3.org/2000/svg"
   xmlns:sodipodi="http://sodipodi.sourceforge.net/DTD/sodipodi-0.dtd"
   xmlns:inkscape="http://www.inkscape.org/namespaces/inkscape"
   width="731.38696mm"
   height="463.12866mm"
   viewBox="0 0 731.38696 463.12866"
   version="1.1"
   id="svg8"
   inkscape:version="0.92.4 (5da689c313, 2019-01-14)"
   sodipodi:docname="runtime_requests.svg">
  <defs
     id="defs2">
    <clipPath
       id="clipPath3797"
       clipPathUnits="userSpaceOnUse">
      <path
         style="clip-rule:evenodd"
         inkscape:connector-curvature="0"
         id="path3795"
         d="M 51,77.4 H 741.12 V 534.36 H 51 Z" />
    </clipPath>
    <clipPath
       id="clipPath3809"
       clipPathUnits="userSpaceOnUse">
      <path
         style="clip-rule:evenodd"
         inkscape:connector-curvature="0"
         id="path3807"
         d="M 51,77.4 H 741.12 V 534.36 H 51 Z" />
    </clipPath>
    <clipPath
       id="clipPath3821"
       clipPathUnits="userSpaceOnUse">
      <path
         style="clip-rule:evenodd"
         inkscape:connector-curvature="0"
         id="path3819"
         d="M 51,77.4 H 741.12 V 534.36 H 51 Z" />
    </clipPath>
    <clipPath
       id="clipPath3833"
       clipPathUnits="userSpaceOnUse">
      <path
         style="clip-rule:evenodd"
         inkscape:connector-curvature="0"
         id="path3831"
         d="M 51,77.4 H 741.12 V 534.36 H 51 Z" />
    </clipPath>
    <clipPath
       id="clipPath3845"
       clipPathUnits="userSpaceOnUse">
      <path
         style="clip-rule:evenodd"
         inkscape:connector-curvature="0"
         id="path3843"
         d="M 51,77.4 H 741.12 V 534.36 H 51 Z" />
    </clipPath>
    <clipPath
       id="clipPath3857"
       clipPathUnits="userSpaceOnUse">
      <path
         style="clip-rule:evenodd"
         inkscape:connector-curvature="0"
         id="path3855"
         d="M 51,77.4 H 741.12 V 534.36 H 51 Z" />
    </clipPath>
    <clipPath
       id="clipPath3869"
       clipPathUnits="userSpaceOnUse">
      <path
         style="clip-rule:evenodd"
         inkscape:connector-curvature="0"
         id="path3867"
         d="M 51,77.4 H 741.12 V 534.36 H 51 Z" />
    </clipPath>
    <clipPath
       id="clipPath3881"
       clipPathUnits="userSpaceOnUse">
      <path
         style="clip-rule:evenodd"
         inkscape:connector-curvature="0"
         id="path3879"
         d="M 51,77.4 H 741.12 V 534.36 H 51 Z" />
    </clipPath>
    <clipPath
       id="clipPath3893"
       clipPathUnits="userSpaceOnUse">
      <path
         style="clip-rule:evenodd"
         inkscape:connector-curvature="0"
         id="path3891"
         d="M 51,77.4 H 741.12 V 534.36 H 51 Z" />
    </clipPath>
    <clipPath
       id="clipPath3905"
       clipPathUnits="userSpaceOnUse">
      <path
         style="clip-rule:evenodd"
         inkscape:connector-curvature="0"
         id="path3903"
         d="M 51,77.4 H 741.12 V 534.36 H 51 Z" />
    </clipPath>
    <clipPath
       id="clipPath3917"
       clipPathUnits="userSpaceOnUse">
      <path
         style="clip-rule:evenodd"
         inkscape:connector-curvature="0"
         id="path3915"
         d="M 51,77.4 H 741.12 V 534.36 H 51 Z" />
    </clipPath>
    <clipPath
       id="clipPath3929"
       clipPathUnits="userSpaceOnUse">
      <path
         style="clip-rule:evenodd"
         inkscape:connector-curvature="0"
         id="path3927"
         d="M 51,77.4 H 741.12 V 534.36 H 51 Z" />
    </clipPath>
    <clipPath
       id="clipPath3941"
       clipPathUnits="userSpaceOnUse">
      <path
         style="clip-rule:evenodd"
         inkscape:connector-curvature="0"
         id="path3939"
         d="M 51,77.4 H 741.12 V 534.36 H 51 Z" />
    </clipPath>
    <clipPath
       id="clipPath3953"
       clipPathUnits="userSpaceOnUse">
      <path
         style="clip-rule:evenodd"
         inkscape:connector-curvature="0"
         id="path3951"
         d="M 51,77.4 H 741.12 V 534.36 H 51 Z" />
    </clipPath>
    <clipPath
       id="clipPath3965"
       clipPathUnits="userSpaceOnUse">
      <path
         style="clip-rule:evenodd"
         inkscape:connector-curvature="0"
         id="path3963"
         d="M 51,77.4 H 741.12 V 534.36 H 51 Z" />
    </clipPath>
    <clipPath
       id="clipPath3977"
       clipPathUnits="userSpaceOnUse">
      <path
         style="clip-rule:evenodd"
         inkscape:connector-curvature="0"
         id="path3975"
         d="M 51,77.4 H 741.12 V 534.36 H 51 Z" />
    </clipPath>
    <clipPath
       id="clipPath3989"
       clipPathUnits="userSpaceOnUse">
      <path
         style="clip-rule:evenodd"
         inkscape:connector-curvature="0"
         id="path3987"
         d="M 51,77.4 H 741.12 V 534.36 H 51 Z" />
    </clipPath>
    <clipPath
       id="clipPath4001"
       clipPathUnits="userSpaceOnUse">
      <path
         style="clip-rule:evenodd"
         inkscape:connector-curvature="0"
         id="path3999"
         d="M 51,77.4 H 741.12 V 534.36 H 51 Z" />
    </clipPath>
    <clipPath
       id="clipPath4013"
       clipPathUnits="userSpaceOnUse">
      <path
         style="clip-rule:evenodd"
         inkscape:connector-curvature="0"
         id="path4011"
         d="M 51,77.4 H 741.12 V 534.36 H 51 Z" />
    </clipPath>
    <clipPath
       id="clipPath4025"
       clipPathUnits="userSpaceOnUse">
      <path
         style="clip-rule:evenodd"
         inkscape:connector-curvature="0"
         id="path4023"
         d="M 51,77.4 H 741.12 V 534.36 H 51 Z" />
    </clipPath>
    <clipPath
       id="clipPath4037"
       clipPathUnits="userSpaceOnUse">
      <path
         style="clip-rule:evenodd"
         inkscape:connector-curvature="0"
         id="path4035"
         d="M 51,77.4 H 741.12 V 534.36 H 51 Z" />
    </clipPath>
    <clipPath
       id="clipPath4049"
       clipPathUnits="userSpaceOnUse">
      <path
         style="clip-rule:evenodd"
         inkscape:connector-curvature="0"
         id="path4047"
         d="M 51,77.4 H 741.12 V 534.36 H 51 Z" />
    </clipPath>
  </defs>
  <sodipodi:namedview
     id="base"
     pagecolor="#ffffff"
     bordercolor="#666666"
     borderopacity="1.0"
     inkscape:pageopacity="0.0"
     inkscape:pageshadow="2"
     inkscape:zoom="0.35"
     inkscape:cx="1475.0057"
     inkscape:cy="959.48949"
     inkscape:document-units="mm"
     inkscape:current-layer="layer1"
     showgrid="false"
     inkscape:window-width="1920"
     inkscape:window-height="998"
     inkscape:window-x="-9"
     inkscape:window-y="-9"
     inkscape:window-maximized="1" />
  <metadata
     id="metadata5">
    <rdf:RDF>
      <cc:Work
         rdf:about="">
        <dc:format>image/svg+xml</dc:format>
        <dc:type
           rdf:resource="http://purl.org/dc/dcmitype/StillImage" />
        <dc:title></dc:title>
      </cc:Work>
    </rdf:RDF>
  </metadata>
  <g
     inkscape:label="Layer 1"
     inkscape:groupmode="layer"
     id="layer1"
     transform="translate(284.42859,120.90658)">
    <g
       transform="matrix(1.0584284,0,0,-1.0114802,-337.91299,420.1009)"
       inkscape:label="runtime-vs-requests"
       id="g3721">
      <path
         inkscape:connector-curvature="0"
         id="path3723"
         style="fill:#ffffff;fill-opacity:1;fill-rule:evenodd;stroke:none"
         d="m 51.038,77.501 h 690 v 456.86 h -690 z" />
      <path
         inkscape:connector-curvature="0"
         id="path3725"
         style="fill:none;stroke:#bfbfbf;stroke-width:1.0122;stroke-linecap:butt;stroke-linejoin:round;stroke-miterlimit:10;stroke-dasharray:none;stroke-opacity:1"
         d="M 115.07,137.43 V 519.52" />
      <path
         inkscape:connector-curvature="0"
         id="path3727"
         style="fill:none;stroke:#bfbfbf;stroke-width:1.0122;stroke-linecap:butt;stroke-linejoin:round;stroke-miterlimit:10;stroke-dasharray:none;stroke-opacity:1"
         d="M 115.07,137.43 H 720.04" />
      <path
         inkscape:connector-curvature="0"
         id="path3729"
         style="fill:none;stroke:#5b9bd5;stroke-width:2.0244;stroke-linecap:round;stroke-linejoin:round;stroke-miterlimit:10;stroke-dasharray:none;stroke-opacity:1"
         d="m 152.88,358.65 37.86,-32.88 37.73,-18.95 37.9,-3.72 37.73,0.48 37.9,-3.56 37.73,8.42 37.9,46.48 37.73,-62.11 37.74,7.53 37.89,92.03 37.74,-82.15 37.89,-12.79 37.74,52.96 37.87,2.43" />
      <path
         inkscape:connector-curvature="0"
         id="path3731"
         style="fill:#5b9bd5;fill-opacity:1;fill-rule:nonzero;stroke:none"
         d="m 156.3,358.65 c 0,-1.88 -1.52,-3.41 -3.4,-3.41 -1.87,0 -3.4,1.53 -3.4,3.41 0,1.87 1.53,3.4 3.4,3.4 1.88,0 3.4,-1.53 3.4,-3.4 z" />
      <path
         inkscape:connector-curvature="0"
         id="path3733"
         style="fill:none;stroke:#5b9bd5;stroke-width:0.97170001;stroke-linecap:butt;stroke-linejoin:round;stroke-miterlimit:10;stroke-dasharray:none;stroke-opacity:1"
         d="m 156.3,358.65 c 0,-1.88 -1.52,-3.41 -3.4,-3.41 -1.87,0 -3.4,1.53 -3.4,3.41 0,1.87 1.53,3.4 3.4,3.4 1.88,0 3.4,-1.53 3.4,-3.4 z" />
      <path
         inkscape:connector-curvature="0"
         id="path3735"
         style="fill:#5b9bd5;fill-opacity:1;fill-rule:nonzero;stroke:none"
         d="m 194.2,325.77 c 0,-1.88 -1.52,-3.4 -3.4,-3.4 -1.88,0 -3.4,1.52 -3.4,3.4 0,1.88 1.52,3.4 3.4,3.4 1.88,0 3.4,-1.52 3.4,-3.4 z" />
      <path
         inkscape:connector-curvature="0"
         id="path3737"
         style="fill:none;stroke:#5b9bd5;stroke-width:0.97170001;stroke-linecap:butt;stroke-linejoin:round;stroke-miterlimit:10;stroke-dasharray:none;stroke-opacity:1"
         d="m 194.2,325.77 c 0,-1.88 -1.52,-3.4 -3.4,-3.4 -1.88,0 -3.4,1.52 -3.4,3.4 0,1.88 1.52,3.4 3.4,3.4 1.88,0 3.4,-1.52 3.4,-3.4 z" />
      <path
         inkscape:connector-curvature="0"
         id="path3739"
         style="fill:#5b9bd5;fill-opacity:1;fill-rule:nonzero;stroke:none"
         d="m 231.94,306.82 c 0,-1.88 -1.53,-3.4 -3.41,-3.4 -1.87,0 -3.4,1.52 -3.4,3.4 0,1.88 1.53,3.4 3.4,3.4 1.88,0 3.41,-1.52 3.41,-3.4 z" />
      <path
         inkscape:connector-curvature="0"
         id="path3741"
         style="fill:none;stroke:#5b9bd5;stroke-width:0.97170001;stroke-linecap:butt;stroke-linejoin:round;stroke-miterlimit:10;stroke-dasharray:none;stroke-opacity:1"
         d="m 231.94,306.82 c 0,-1.88 -1.53,-3.4 -3.41,-3.4 -1.87,0 -3.4,1.52 -3.4,3.4 0,1.88 1.53,3.4 3.4,3.4 1.88,0 3.41,-1.52 3.41,-3.4 z" />
      <path
         inkscape:connector-curvature="0"
         id="path3743"
         style="fill:#5b9bd5;fill-opacity:1;fill-rule:nonzero;stroke:none"
         d="m 269.83,303.1 c 0,-1.88 -1.52,-3.4 -3.4,-3.4 -1.88,0 -3.4,1.52 -3.4,3.4 0,1.88 1.52,3.4 3.4,3.4 1.88,0 3.4,-1.52 3.4,-3.4 z" />
      <path
         inkscape:connector-curvature="0"
         id="path3745"
         style="fill:none;stroke:#5b9bd5;stroke-width:0.97170001;stroke-linecap:butt;stroke-linejoin:round;stroke-miterlimit:10;stroke-dasharray:none;stroke-opacity:1"
         d="m 269.83,303.1 c 0,-1.88 -1.52,-3.4 -3.4,-3.4 -1.88,0 -3.4,1.52 -3.4,3.4 0,1.88 1.52,3.4 3.4,3.4 1.88,0 3.4,-1.52 3.4,-3.4 z" />
      <path
         inkscape:connector-curvature="0"
         id="path3747"
         style="fill:#5b9bd5;fill-opacity:1;fill-rule:nonzero;stroke:none"
         d="m 307.57,303.58 c 0,-1.88 -1.53,-3.4 -3.41,-3.4 -1.87,0 -3.4,1.52 -3.4,3.4 0,1.88 1.53,3.4 3.4,3.4 1.88,0 3.41,-1.52 3.41,-3.4 z" />
      <path
         inkscape:connector-curvature="0"
         id="path3749"
         style="fill:none;stroke:#5b9bd5;stroke-width:0.97170001;stroke-linecap:butt;stroke-linejoin:round;stroke-miterlimit:10;stroke-dasharray:none;stroke-opacity:1"
         d="m 307.57,303.58 c 0,-1.88 -1.53,-3.4 -3.41,-3.4 -1.87,0 -3.4,1.52 -3.4,3.4 0,1.88 1.53,3.4 3.4,3.4 1.88,0 3.41,-1.52 3.41,-3.4 z" />
      <path
         inkscape:connector-curvature="0"
         id="path3751"
         style="fill:#5b9bd5;fill-opacity:1;fill-rule:nonzero;stroke:none"
         d="m 345.46,300.02 c 0,-1.88 -1.52,-3.4 -3.4,-3.4 -1.88,0 -3.4,1.52 -3.4,3.4 0,1.88 1.52,3.4 3.4,3.4 1.88,0 3.4,-1.52 3.4,-3.4 z" />
      <path
         inkscape:connector-curvature="0"
         id="path3753"
         style="fill:none;stroke:#5b9bd5;stroke-width:0.97170001;stroke-linecap:butt;stroke-linejoin:round;stroke-miterlimit:10;stroke-dasharray:none;stroke-opacity:1"
         d="m 345.46,300.02 c 0,-1.88 -1.52,-3.4 -3.4,-3.4 -1.88,0 -3.4,1.52 -3.4,3.4 0,1.88 1.52,3.4 3.4,3.4 1.88,0 3.4,-1.52 3.4,-3.4 z" />
      <path
         inkscape:connector-curvature="0"
         id="path3755"
         style="fill:#5b9bd5;fill-opacity:1;fill-rule:nonzero;stroke:none"
         d="m 383.2,308.44 c 0,-1.88 -1.53,-3.4 -3.41,-3.4 -1.87,0 -3.4,1.52 -3.4,3.4 0,1.88 1.53,3.4 3.4,3.4 1.88,0 3.41,-1.52 3.41,-3.4 z" />
      <path
         inkscape:connector-curvature="0"
         id="path3757"
         style="fill:none;stroke:#5b9bd5;stroke-width:0.97170001;stroke-linecap:butt;stroke-linejoin:round;stroke-miterlimit:10;stroke-dasharray:none;stroke-opacity:1"
         d="m 383.2,308.44 c 0,-1.88 -1.53,-3.4 -3.41,-3.4 -1.87,0 -3.4,1.52 -3.4,3.4 0,1.88 1.53,3.4 3.4,3.4 1.88,0 3.41,-1.52 3.41,-3.4 z" />
      <path
         inkscape:connector-curvature="0"
         id="path3759"
         style="fill:#5b9bd5;fill-opacity:1;fill-rule:nonzero;stroke:none"
         d="m 421.09,354.92 c 0,-1.88 -1.52,-3.4 -3.4,-3.4 -1.88,0 -3.4,1.52 -3.4,3.4 0,1.88 1.52,3.4 3.4,3.4 1.88,0 3.4,-1.52 3.4,-3.4 z" />
      <path
         inkscape:connector-curvature="0"
         id="path3761"
         style="fill:none;stroke:#5b9bd5;stroke-width:0.97170001;stroke-linecap:butt;stroke-linejoin:round;stroke-miterlimit:10;stroke-dasharray:none;stroke-opacity:1"
         d="m 421.09,354.92 c 0,-1.88 -1.52,-3.4 -3.4,-3.4 -1.88,0 -3.4,1.52 -3.4,3.4 0,1.88 1.52,3.4 3.4,3.4 1.88,0 3.4,-1.52 3.4,-3.4 z" />
      <path
         inkscape:connector-curvature="0"
         id="path3763"
         style="fill:#5b9bd5;fill-opacity:1;fill-rule:nonzero;stroke:none"
         d="m 458.83,292.89 c 0,-1.87 -1.53,-3.4 -3.4,-3.4 -1.88,0 -3.41,1.53 -3.41,3.4 0,1.88 1.53,3.4 3.41,3.4 1.87,0 3.4,-1.52 3.4,-3.4 z" />
      <path
         inkscape:connector-curvature="0"
         id="path3765"
         style="fill:none;stroke:#5b9bd5;stroke-width:0.97170001;stroke-linecap:butt;stroke-linejoin:round;stroke-miterlimit:10;stroke-dasharray:none;stroke-opacity:1"
         d="m 458.83,292.89 c 0,-1.87 -1.53,-3.4 -3.4,-3.4 -1.88,0 -3.41,1.53 -3.41,3.4 0,1.88 1.53,3.4 3.41,3.4 1.87,0 3.4,-1.52 3.4,-3.4 z" />
      <path
         inkscape:connector-curvature="0"
         id="path3767"
         style="fill:#5b9bd5;fill-opacity:1;fill-rule:nonzero;stroke:none"
         d="m 496.56,300.34 c 0,-1.87 -1.52,-3.4 -3.4,-3.4 -1.88,0 -3.4,1.53 -3.4,3.4 0,1.88 1.52,3.4 3.4,3.4 1.88,0 3.4,-1.52 3.4,-3.4 z" />
      <path
         inkscape:connector-curvature="0"
         id="path3769"
         style="fill:none;stroke:#5b9bd5;stroke-width:0.97170001;stroke-linecap:butt;stroke-linejoin:round;stroke-miterlimit:10;stroke-dasharray:none;stroke-opacity:1"
         d="m 496.56,300.34 c 0,-1.87 -1.52,-3.4 -3.4,-3.4 -1.88,0 -3.4,1.53 -3.4,3.4 0,1.88 1.52,3.4 3.4,3.4 1.88,0 3.4,-1.52 3.4,-3.4 z" />
      <path
         inkscape:connector-curvature="0"
         id="path3771"
         style="fill:#5b9bd5;fill-opacity:1;fill-rule:nonzero;stroke:none"
         d="m 534.46,392.33 c 0,-1.88 -1.53,-3.4 -3.4,-3.4 -1.88,0 -3.41,1.52 -3.41,3.4 0,1.88 1.53,3.4 3.41,3.4 1.87,0 3.4,-1.52 3.4,-3.4 z" />
      <path
         inkscape:connector-curvature="0"
         id="path3773"
         style="fill:none;stroke:#5b9bd5;stroke-width:0.97170001;stroke-linecap:butt;stroke-linejoin:round;stroke-miterlimit:10;stroke-dasharray:none;stroke-opacity:1"
         d="m 534.46,392.33 c 0,-1.88 -1.53,-3.4 -3.4,-3.4 -1.88,0 -3.41,1.52 -3.41,3.4 0,1.88 1.53,3.4 3.41,3.4 1.87,0 3.4,-1.52 3.4,-3.4 z" />
      <path
         inkscape:connector-curvature="0"
         id="path3775"
         style="fill:#5b9bd5;fill-opacity:1;fill-rule:nonzero;stroke:none"
         d="m 572.19,310.22 c 0,-1.88 -1.52,-3.4 -3.4,-3.4 -1.88,0 -3.4,1.52 -3.4,3.4 0,1.88 1.52,3.4 3.4,3.4 1.88,0 3.4,-1.52 3.4,-3.4 z" />
      <path
         inkscape:connector-curvature="0"
         id="path3777"
         style="fill:none;stroke:#5b9bd5;stroke-width:0.97170001;stroke-linecap:butt;stroke-linejoin:round;stroke-miterlimit:10;stroke-dasharray:none;stroke-opacity:1"
         d="m 572.19,310.22 c 0,-1.88 -1.52,-3.4 -3.4,-3.4 -1.88,0 -3.4,1.52 -3.4,3.4 0,1.88 1.52,3.4 3.4,3.4 1.88,0 3.4,-1.52 3.4,-3.4 z" />
      <path
         inkscape:connector-curvature="0"
         id="path3779"
         style="fill:#5b9bd5;fill-opacity:1;fill-rule:nonzero;stroke:none"
         d="m 610.09,297.43 c 0,-1.88 -1.53,-3.4 -3.4,-3.4 -1.88,0 -3.4,1.52 -3.4,3.4 0,1.88 1.52,3.4 3.4,3.4 1.87,0 3.4,-1.52 3.4,-3.4 z" />
      <path
         inkscape:connector-curvature="0"
         id="path3781"
         style="fill:none;stroke:#5b9bd5;stroke-width:0.97170001;stroke-linecap:butt;stroke-linejoin:round;stroke-miterlimit:10;stroke-dasharray:none;stroke-opacity:1"
         d="m 610.09,297.43 c 0,-1.88 -1.53,-3.4 -3.4,-3.4 -1.88,0 -3.4,1.52 -3.4,3.4 0,1.88 1.52,3.4 3.4,3.4 1.87,0 3.4,-1.52 3.4,-3.4 z" />
      <path
         inkscape:connector-curvature="0"
         id="path3783"
         style="fill:#5b9bd5;fill-opacity:1;fill-rule:nonzero;stroke:none"
         d="m 647.82,350.39 c 0,-1.88 -1.52,-3.4 -3.4,-3.4 -1.88,0 -3.4,1.52 -3.4,3.4 0,1.87 1.52,3.4 3.4,3.4 1.88,0 3.4,-1.53 3.4,-3.4 z" />
      <path
         inkscape:connector-curvature="0"
         id="path3785"
         style="fill:none;stroke:#5b9bd5;stroke-width:0.97170001;stroke-linecap:butt;stroke-linejoin:round;stroke-miterlimit:10;stroke-dasharray:none;stroke-opacity:1"
         d="m 647.82,350.39 c 0,-1.88 -1.52,-3.4 -3.4,-3.4 -1.88,0 -3.4,1.52 -3.4,3.4 0,1.87 1.52,3.4 3.4,3.4 1.88,0 3.4,-1.53 3.4,-3.4 z" />
      <path
         inkscape:connector-curvature="0"
         id="path3787"
         style="fill:#5b9bd5;fill-opacity:1;fill-rule:nonzero;stroke:none"
         d="m 685.72,352.82 c 0,-1.88 -1.53,-3.41 -3.4,-3.41 -1.88,0 -3.4,1.53 -3.4,3.41 0,1.87 1.52,3.4 3.4,3.4 1.87,0 3.4,-1.53 3.4,-3.4 z" />
      <path
         inkscape:connector-curvature="0"
         id="path3789"
         style="fill:none;stroke:#5b9bd5;stroke-width:0.97170001;stroke-linecap:butt;stroke-linejoin:round;stroke-miterlimit:10;stroke-dasharray:none;stroke-opacity:1"
         d="m 685.72,352.82 c 0,-1.88 -1.53,-3.41 -3.4,-3.41 -1.88,0 -3.4,1.53 -3.4,3.41 0,1.87 1.52,3.4 3.4,3.4 1.87,0 3.4,-1.53 3.4,-3.4 z" />
      <g
         id="g3791">
        <g
           clip-path="url(#clipPath3797)"
           id="g3793">
          <text
             id="text3801"
             style="font-variant:normal;font-weight:normal;font-size:12.14400005px;font-family:Calibri;-inkscape-font-specification:Calibri;writing-mode:lr-tb;fill:#595959;fill-opacity:1;fill-rule:nonzero;stroke:none"
             transform="matrix(1,0,0,-1,97.68,133.92)">
            <tspan
               id="tspan3799"
               y="0"
               x="0">0</tspan>
          </text>
        </g>
      </g>
      <g
         id="g3803">
        <g
           clip-path="url(#clipPath3809)"
           id="g3805">
          <text
             id="text3813"
             style="font-variant:normal;font-weight:normal;font-size:12.14400005px;font-family:Calibri;-inkscape-font-specification:Calibri;writing-mode:lr-tb;fill:#595959;fill-opacity:1;fill-rule:nonzero;stroke:none"
             transform="matrix(1,0,0,-1,88.464,172.13)">
            <tspan
               id="tspan3811"
               sodipodi:role="line"
               y="0"
               x="0 6.1570082 9.2172956">0.2</tspan>
          </text>
        </g>
      </g>
      <g
         id="g3815">
        <g
           clip-path="url(#clipPath3821)"
           id="g3817">
          <text
             id="text3825"
             style="font-variant:normal;font-weight:normal;font-size:12.16800022px;font-family:Calibri;-inkscape-font-specification:Calibri;writing-mode:lr-tb;fill:#595959;fill-opacity:1;fill-rule:nonzero;stroke:none"
             transform="matrix(1,0,0,-1,88.464,210.36)">
            <tspan
               id="tspan3823"
               sodipodi:role="line"
               y="0"
               x="0 6.1691761 9.2355118">0.4</tspan>
          </text>
        </g>
      </g>
      <g
         id="g3827">
        <g
           clip-path="url(#clipPath3833)"
           id="g3829">
          <text
             id="text3837"
             style="font-variant:normal;font-weight:normal;font-size:12.14400005px;font-family:Calibri;-inkscape-font-specification:Calibri;writing-mode:lr-tb;fill:#595959;fill-opacity:1;fill-rule:nonzero;stroke:none"
             transform="matrix(1,0,0,-1,88.464,248.57)">
            <tspan
               id="tspan3835"
               sodipodi:role="line"
               y="0"
               x="0 6.1570082 9.2172956">0.6</tspan>
          </text>
        </g>
      </g>
      <g
         id="g3839">
        <g
           clip-path="url(#clipPath3845)"
           id="g3841">
          <text
             id="text3849"
             style="font-variant:normal;font-weight:normal;font-size:12.14400005px;font-family:Calibri;-inkscape-font-specification:Calibri;writing-mode:lr-tb;fill:#595959;fill-opacity:1;fill-rule:nonzero;stroke:none"
             transform="matrix(1,0,0,-1,88.464,286.78)">
            <tspan
               id="tspan3847"
               sodipodi:role="line"
               y="0"
               x="0 6.1570082 9.2172956">0.8</tspan>
          </text>
        </g>
      </g>
      <g
         id="g3851">
        <g
           clip-path="url(#clipPath3857)"
           id="g3853">
          <text
             id="text3861"
             style="font-variant:normal;font-weight:normal;font-size:12.14400005px;font-family:Calibri;-inkscape-font-specification:Calibri;writing-mode:lr-tb;fill:#595959;fill-opacity:1;fill-rule:nonzero;stroke:none"
             transform="matrix(1,0,0,-1,97.68,325.01)">
            <tspan
               id="tspan3859"
               y="0"
               x="0">1</tspan>
          </text>
        </g>
      </g>
      <g
         id="g3863">
        <g
           clip-path="url(#clipPath3869)"
           id="g3865">
          <text
             id="text3873"
             style="font-variant:normal;font-weight:normal;font-size:12.14400005px;font-family:Calibri;-inkscape-font-specification:Calibri;writing-mode:lr-tb;fill:#595959;fill-opacity:1;fill-rule:nonzero;stroke:none"
             transform="matrix(1,0,0,-1,88.464,363.22)">
            <tspan
               id="tspan3871"
               sodipodi:role="line"
               y="0"
               x="0 6.1570082 9.2172956">1.2</tspan>
          </text>
        </g>
      </g>
      <g
         id="g3875">
        <g
           clip-path="url(#clipPath3881)"
           id="g3877">
          <text
             id="text3885"
             style="font-variant:normal;font-weight:normal;font-size:12.16800022px;font-family:Calibri;-inkscape-font-specification:Calibri;writing-mode:lr-tb;fill:#595959;fill-opacity:1;fill-rule:nonzero;stroke:none"
             transform="matrix(1,0,0,-1,88.464,401.45)">
            <tspan
               id="tspan3883"
               sodipodi:role="line"
               y="0"
               x="0 6.1691761 9.2355118">1.4</tspan>
          </text>
        </g>
      </g>
      <g
         id="g3887">
        <g
           clip-path="url(#clipPath3893)"
           id="g3889">
          <text
             id="text3897"
             style="font-variant:normal;font-weight:normal;font-size:12.14400005px;font-family:Calibri;-inkscape-font-specification:Calibri;writing-mode:lr-tb;fill:#595959;fill-opacity:1;fill-rule:nonzero;stroke:none"
             transform="matrix(1,0,0,-1,88.464,439.66)">
            <tspan
               id="tspan3895"
               sodipodi:role="line"
               y="0"
               x="0 6.1570082 9.2172956">1.6</tspan>
          </text>
        </g>
      </g>
      <g
         id="g3899">
        <g
           clip-path="url(#clipPath3905)"
           id="g3901">
          <text
             id="text3909"
             style="font-variant:normal;font-weight:normal;font-size:12.14400005px;font-family:Calibri;-inkscape-font-specification:Calibri;writing-mode:lr-tb;fill:#595959;fill-opacity:1;fill-rule:nonzero;stroke:none"
             transform="matrix(1,0,0,-1,88.464,477.86)">
            <tspan
               id="tspan3907"
               sodipodi:role="line"
               y="0"
               x="0 6.1570082 9.2172956">1.8</tspan>
          </text>
        </g>
      </g>
      <g
         id="g3911">
        <g
           clip-path="url(#clipPath3917)"
           id="g3913">
          <text
             id="text3921"
             style="font-variant:normal;font-weight:normal;font-size:12.14400005px;font-family:Calibri;-inkscape-font-specification:Calibri;writing-mode:lr-tb;fill:#595959;fill-opacity:1;fill-rule:nonzero;stroke:none"
             transform="matrix(1,0,0,-1,97.68,516.1)">
            <tspan
               id="tspan3919"
               y="0"
               x="0">2</tspan>
          </text>
        </g>
      </g>
      <g
         id="g3923">
        <g
           clip-path="url(#clipPath3929)"
           id="g3925">
          <text
             id="text3933"
             style="font-variant:normal;font-weight:normal;font-size:12.16800022px;font-family:Calibri;-inkscape-font-specification:Calibri;writing-mode:lr-tb;fill:#595959;fill-opacity:1;fill-rule:nonzero;stroke:none"
             transform="matrix(1,0,0,-1,112.03,118.13)">
            <tspan
               id="tspan3931"
               y="0"
               x="0">0</tspan>
          </text>
        </g>
      </g>
      <g
         id="g3935">
        <g
           clip-path="url(#clipPath3941)"
           id="g3937">
          <text
             id="text3945"
             style="font-variant:normal;font-weight:normal;font-size:12.16800022px;font-family:Calibri;-inkscape-font-specification:Calibri;writing-mode:lr-tb;fill:#595959;fill-opacity:1;fill-rule:nonzero;stroke:none"
             transform="matrix(1,0,0,-1,187.66,118.13)">
            <tspan
               id="tspan3943"
               y="0"
               x="0">2</tspan>
          </text>
        </g>
      </g>
      <g
         id="g3947">
        <g
           clip-path="url(#clipPath3953)"
           id="g3949">
          <text
             id="text3957"
             style="font-variant:normal;font-weight:normal;font-size:12.16800022px;font-family:Calibri;-inkscape-font-specification:Calibri;writing-mode:lr-tb;fill:#595959;fill-opacity:1;fill-rule:nonzero;stroke:none"
             transform="matrix(1,0,0,-1,263.28,118.13)">
            <tspan
               id="tspan3955"
               y="0"
               x="0">4</tspan>
          </text>
        </g>
      </g>
      <g
         id="g3959">
        <g
           clip-path="url(#clipPath3965)"
           id="g3961">
          <text
             id="text3969"
             style="font-variant:normal;font-weight:normal;font-size:12.16800022px;font-family:Calibri;-inkscape-font-specification:Calibri;writing-mode:lr-tb;fill:#595959;fill-opacity:1;fill-rule:nonzero;stroke:none"
             transform="matrix(1,0,0,-1,338.93,118.13)">
            <tspan
               id="tspan3967"
               y="0"
               x="0">6</tspan>
          </text>
        </g>
      </g>
      <g
         id="g3971">
        <g
           clip-path="url(#clipPath3977)"
           id="g3973">
          <text
             id="text3981"
             style="font-variant:normal;font-weight:normal;font-size:12.16800022px;font-family:Calibri;-inkscape-font-specification:Calibri;writing-mode:lr-tb;fill:#595959;fill-opacity:1;fill-rule:nonzero;stroke:none"
             transform="matrix(1,0,0,-1,414.55,118.13)">
            <tspan
               id="tspan3979"
               y="0"
               x="0">8</tspan>
          </text>
        </g>
      </g>
      <g
         id="g3983">
        <g
           clip-path="url(#clipPath3989)"
           id="g3985">
          <text
             id="text3993"
             style="font-variant:normal;font-weight:normal;font-size:12.16800022px;font-family:Calibri;-inkscape-font-specification:Calibri;writing-mode:lr-tb;fill:#595959;fill-opacity:1;fill-rule:nonzero;stroke:none"
             transform="matrix(1,0,0,-1,487.1,118.13)">
            <tspan
               id="tspan3991"
               sodipodi:role="line"
               y="0"
               x="0 6.1679959">10</tspan>
          </text>
        </g>
      </g>
      <g
         id="g3995">
        <g
           clip-path="url(#clipPath4001)"
           id="g3997">
          <text
             id="text4005"
             style="font-variant:normal;font-weight:normal;font-size:12.16800022px;font-family:Calibri;-inkscape-font-specification:Calibri;writing-mode:lr-tb;fill:#595959;fill-opacity:1;fill-rule:nonzero;stroke:none"
             transform="matrix(1,0,0,-1,562.73,118.13)">
            <tspan
               id="tspan4003"
               sodipodi:role="line"
               y="0"
               x="0 6.1679959">12</tspan>
          </text>
        </g>
      </g>
      <g
         id="g4007">
        <g
           clip-path="url(#clipPath4013)"
           id="g4009">
          <text
             id="text4017"
             style="font-variant:normal;font-weight:normal;font-size:12.16800022px;font-family:Calibri;-inkscape-font-specification:Calibri;writing-mode:lr-tb;fill:#595959;fill-opacity:1;fill-rule:nonzero;stroke:none"
             transform="matrix(1,0,0,-1,638.38,118.13)">
            <tspan
               id="tspan4015"
               sodipodi:role="line"
               y="0"
               x="0 6.1439762">14</tspan>
          </text>
        </g>
      </g>
      <g
         id="g4019">
        <g
           clip-path="url(#clipPath4025)"
           id="g4021">
          <text
             id="text4029"
             style="font-variant:normal;font-weight:normal;font-size:12.16800022px;font-family:Calibri;-inkscape-font-specification:Calibri;writing-mode:lr-tb;fill:#595959;fill-opacity:1;fill-rule:nonzero;stroke:none"
             transform="matrix(1,0,0,-1,714,118.13)">
            <tspan
               id="tspan4027"
               sodipodi:role="line"
               y="0"
               x="0 6.1679959">16</tspan>
          </text>
        </g>
      </g>
      <g
         id="g4031">
        <g
           clip-path="url(#clipPath4037)"
           id="g4033">
          <text
             id="text4041"
             style="font-variant:normal;font-weight:normal;font-size:13.43999958px;font-family:Calibri;-inkscape-font-specification:Calibri;writing-mode:lr-tb;fill:#595959;fill-opacity:1;fill-rule:nonzero;stroke:none"
             transform="matrix(-4.4e-8,1,1,4.4e-8,80.736,277.49)">
            <tspan
               id="tspan4039"
               sodipodi:role="line"
               y="0"
               x="0 7.2979202 14.40768 21.517441 26.01984 29.11104 39.849602 46.475521 49.701118 53.773441 58.934399 65.587196 71.272324 78.355202 85.491837 92.601601 97.789436">Runtime (seconds)</tspan>
          </text>
        </g>
      </g>
      <g
         id="g4043">
        <g
           clip-path="url(#clipPath4049)"
           id="g4045">
          <text
             id="text4053"
             style="font-variant:normal;font-weight:normal;font-size:13.43999958px;font-family:Calibri;-inkscape-font-specification:Calibri;writing-mode:lr-tb;fill:#595959;fill-opacity:1;fill-rule:nonzero;stroke:none"
             transform="matrix(1,0,0,-1,326.23,97.944)">
            <tspan
               id="tspan4051"
               sodipodi:role="line"
               y="0"
               x="0 8.7494402 15.8592 26.597759 33.653759 40.346882 45.037441 48.074879 55.22496 59.28384 62.321281 69.619202 76.312317 83.408638 90.518402 97.171204 102.35904 106.86144 112.11648 115.47648 122.58624 129.23904 133.9296 137.00735 144.17088 147.20831 150.29951 157.39584 160.48705 166.13184 169.22304 175.6608">Number of Requests per Clinician</tspan>
          </text>
        </g>
      </g>
      <path
         inkscape:connector-curvature="0"
         id="path4055"
         style="fill:none;stroke:#d9d9d9;stroke-width:1.0122;stroke-linecap:butt;stroke-linejoin:round;stroke-miterlimit:10;stroke-dasharray:none;stroke-opacity:1"
         d="m 51.038,77.501 h 690 v 456.86 h -690 z" />
    </g>
  </g>
</svg>
